<mxfile host="app.diagrams.net" modified="2024-03-03T07:50:18.181Z" agent="Mozilla/5.0 (Windows NT 10.0; Win64; x64) AppleWebKit/537.36 (KHTML, like Gecko) Chrome/122.0.0.0 Safari/537.36 Edg/122.0.0.0" version="24.0.1" etag="JFGn-GCIwNJoIIGBYmSG" type="device">
  <diagram id="pahSO8UJNgL98ciaI8RR" name="Страница — 1">
    <mxGraphModel dx="1146" dy="773" grid="1" gridSize="10" guides="1" tooltips="1" connect="1" arrows="1" fold="1" page="1" pageScale="1" pageWidth="827" pageHeight="1169" math="0" shadow="0">
      <root>
        <mxCell id="0" />
        <mxCell id="1" parent="0" />
        <mxCell id="Ok8LsuB4Ud9mYwhSegDr-8" value="Проект на тему выбор профессии" style="swimlane;fontStyle=0;childLayout=stackLayout;horizontal=1;startSize=40;horizontalStack=0;resizeParent=1;resizeParentMax=0;resizeLast=0;collapsible=1;marginBottom=0;whiteSpace=wrap;html=1;" vertex="1" parent="1">
          <mxGeometry x="300" y="20" width="170" height="130" as="geometry">
            <mxRectangle x="300" y="30" width="230" height="30" as="alternateBounds" />
          </mxGeometry>
        </mxCell>
        <mxCell id="Ok8LsuB4Ud9mYwhSegDr-14" style="edgeStyle=orthogonalEdgeStyle;rounded=0;orthogonalLoop=1;jettySize=auto;html=1;" edge="1" parent="Ok8LsuB4Ud9mYwhSegDr-8" source="Ok8LsuB4Ud9mYwhSegDr-9">
          <mxGeometry relative="1" as="geometry">
            <mxPoint x="380" y="180" as="targetPoint" />
          </mxGeometry>
        </mxCell>
        <mxCell id="Ok8LsuB4Ud9mYwhSegDr-9" value="Работа" style="text;strokeColor=none;fillColor=none;align=left;verticalAlign=middle;spacingLeft=4;spacingRight=4;overflow=hidden;points=[[0,0.5],[1,0.5]];portConstraint=eastwest;rotatable=0;whiteSpace=wrap;html=1;" vertex="1" parent="Ok8LsuB4Ud9mYwhSegDr-8">
          <mxGeometry y="40" width="170" height="30" as="geometry" />
        </mxCell>
        <mxCell id="Ok8LsuB4Ud9mYwhSegDr-19" style="edgeStyle=orthogonalEdgeStyle;rounded=0;orthogonalLoop=1;jettySize=auto;html=1;" edge="1" parent="Ok8LsuB4Ud9mYwhSegDr-8" source="Ok8LsuB4Ud9mYwhSegDr-10">
          <mxGeometry relative="1" as="geometry">
            <mxPoint x="220" y="180" as="targetPoint" />
          </mxGeometry>
        </mxCell>
        <mxCell id="Ok8LsuB4Ud9mYwhSegDr-10" value="Объязанности" style="text;strokeColor=none;fillColor=none;align=left;verticalAlign=middle;spacingLeft=4;spacingRight=4;overflow=hidden;points=[[0,0.5],[1,0.5]];portConstraint=eastwest;rotatable=0;whiteSpace=wrap;html=1;" vertex="1" parent="Ok8LsuB4Ud9mYwhSegDr-8">
          <mxGeometry y="70" width="170" height="30" as="geometry" />
        </mxCell>
        <mxCell id="Ok8LsuB4Ud9mYwhSegDr-25" style="edgeStyle=orthogonalEdgeStyle;rounded=0;orthogonalLoop=1;jettySize=auto;html=1;" edge="1" parent="Ok8LsuB4Ud9mYwhSegDr-8" source="Ok8LsuB4Ud9mYwhSegDr-11">
          <mxGeometry relative="1" as="geometry">
            <mxPoint x="60" y="180" as="targetPoint" />
          </mxGeometry>
        </mxCell>
        <mxCell id="Ok8LsuB4Ud9mYwhSegDr-11" value="Востребованность" style="text;strokeColor=none;fillColor=none;align=left;verticalAlign=middle;spacingLeft=4;spacingRight=4;overflow=hidden;points=[[0,0.5],[1,0.5]];portConstraint=eastwest;rotatable=0;whiteSpace=wrap;html=1;" vertex="1" parent="Ok8LsuB4Ud9mYwhSegDr-8">
          <mxGeometry y="100" width="170" height="30" as="geometry" />
        </mxCell>
        <mxCell id="Ok8LsuB4Ud9mYwhSegDr-15" value="Тип работ:" style="swimlane;fontStyle=0;childLayout=stackLayout;horizontal=1;startSize=30;horizontalStack=0;resizeParent=1;resizeParentMax=0;resizeLast=0;collapsible=1;marginBottom=0;whiteSpace=wrap;html=1;" vertex="1" parent="1">
          <mxGeometry x="610" y="210" width="140" height="90" as="geometry" />
        </mxCell>
        <mxCell id="Ok8LsuB4Ud9mYwhSegDr-37" style="edgeStyle=orthogonalEdgeStyle;rounded=0;orthogonalLoop=1;jettySize=auto;html=1;" edge="1" parent="Ok8LsuB4Ud9mYwhSegDr-15" source="Ok8LsuB4Ud9mYwhSegDr-16">
          <mxGeometry relative="1" as="geometry">
            <mxPoint x="170" y="330" as="targetPoint" />
            <Array as="points">
              <mxPoint x="191" y="45" />
            </Array>
          </mxGeometry>
        </mxCell>
        <mxCell id="Ok8LsuB4Ud9mYwhSegDr-16" value="Коллективные" style="text;strokeColor=none;fillColor=none;align=left;verticalAlign=middle;spacingLeft=4;spacingRight=4;overflow=hidden;points=[[0,0.5],[1,0.5]];portConstraint=eastwest;rotatable=0;whiteSpace=wrap;html=1;" vertex="1" parent="Ok8LsuB4Ud9mYwhSegDr-15">
          <mxGeometry y="30" width="140" height="30" as="geometry" />
        </mxCell>
        <mxCell id="Ok8LsuB4Ud9mYwhSegDr-38" style="edgeStyle=orthogonalEdgeStyle;rounded=0;orthogonalLoop=1;jettySize=auto;html=1;" edge="1" parent="Ok8LsuB4Ud9mYwhSegDr-15" source="Ok8LsuB4Ud9mYwhSegDr-17">
          <mxGeometry relative="1" as="geometry">
            <mxPoint x="190" y="75" as="targetPoint" />
          </mxGeometry>
        </mxCell>
        <mxCell id="Ok8LsuB4Ud9mYwhSegDr-17" value="Индивидуальные" style="text;strokeColor=none;fillColor=none;align=left;verticalAlign=middle;spacingLeft=4;spacingRight=4;overflow=hidden;points=[[0,0.5],[1,0.5]];portConstraint=eastwest;rotatable=0;whiteSpace=wrap;html=1;" vertex="1" parent="Ok8LsuB4Ud9mYwhSegDr-15">
          <mxGeometry y="60" width="140" height="30" as="geometry" />
        </mxCell>
        <mxCell id="Ok8LsuB4Ud9mYwhSegDr-20" value="Что в них входит:" style="swimlane;fontStyle=0;childLayout=stackLayout;horizontal=1;startSize=30;horizontalStack=0;resizeParent=1;resizeParentMax=0;resizeLast=0;collapsible=1;marginBottom=0;whiteSpace=wrap;html=1;" vertex="1" parent="1">
          <mxGeometry x="450" y="210" width="140" height="150" as="geometry" />
        </mxCell>
        <mxCell id="Ok8LsuB4Ud9mYwhSegDr-21" value="Не опаздовать" style="text;strokeColor=none;fillColor=none;align=left;verticalAlign=middle;spacingLeft=4;spacingRight=4;overflow=hidden;points=[[0,0.5],[1,0.5]];portConstraint=eastwest;rotatable=0;whiteSpace=wrap;html=1;" vertex="1" parent="Ok8LsuB4Ud9mYwhSegDr-20">
          <mxGeometry y="30" width="140" height="30" as="geometry" />
        </mxCell>
        <mxCell id="Ok8LsuB4Ud9mYwhSegDr-22" value="Быть на связи с коллективом или начальством" style="text;strokeColor=none;fillColor=none;align=left;verticalAlign=middle;spacingLeft=4;spacingRight=4;overflow=hidden;points=[[0,0.5],[1,0.5]];portConstraint=eastwest;rotatable=0;whiteSpace=wrap;html=1;" vertex="1" parent="Ok8LsuB4Ud9mYwhSegDr-20">
          <mxGeometry y="60" width="140" height="50" as="geometry" />
        </mxCell>
        <mxCell id="Ok8LsuB4Ud9mYwhSegDr-39" style="edgeStyle=orthogonalEdgeStyle;rounded=0;orthogonalLoop=1;jettySize=auto;html=1;" edge="1" parent="Ok8LsuB4Ud9mYwhSegDr-20" source="Ok8LsuB4Ud9mYwhSegDr-32">
          <mxGeometry relative="1" as="geometry">
            <mxPoint x="350" y="130" as="targetPoint" />
          </mxGeometry>
        </mxCell>
        <mxCell id="Ok8LsuB4Ud9mYwhSegDr-32" value="Соблюдать свод правил" style="text;strokeColor=none;fillColor=none;align=left;verticalAlign=middle;spacingLeft=4;spacingRight=4;overflow=hidden;points=[[0,0.5],[1,0.5]];portConstraint=eastwest;rotatable=0;whiteSpace=wrap;html=1;" vertex="1" parent="Ok8LsuB4Ud9mYwhSegDr-20">
          <mxGeometry y="110" width="140" height="40" as="geometry" />
        </mxCell>
        <mxCell id="Ok8LsuB4Ud9mYwhSegDr-26" value="Эффективные и значимые;" style="swimlane;fontStyle=0;childLayout=stackLayout;horizontal=1;startSize=30;horizontalStack=0;resizeParent=1;resizeParentMax=0;resizeLast=0;collapsible=1;marginBottom=0;whiteSpace=wrap;html=1;" vertex="1" parent="1">
          <mxGeometry x="290" y="210" width="140" height="150" as="geometry" />
        </mxCell>
        <mxCell id="Ok8LsuB4Ud9mYwhSegDr-33" style="edgeStyle=orthogonalEdgeStyle;rounded=0;orthogonalLoop=1;jettySize=auto;html=1;" edge="1" parent="Ok8LsuB4Ud9mYwhSegDr-26" source="Ok8LsuB4Ud9mYwhSegDr-27">
          <mxGeometry relative="1" as="geometry">
            <mxPoint x="330" y="330" as="targetPoint" />
            <Array as="points">
              <mxPoint x="-89" y="45" />
            </Array>
          </mxGeometry>
        </mxCell>
        <mxCell id="Ok8LsuB4Ud9mYwhSegDr-27" value="IT сфера" style="text;strokeColor=none;fillColor=none;align=left;verticalAlign=middle;spacingLeft=4;spacingRight=4;overflow=hidden;points=[[0,0.5],[1,0.5]];portConstraint=eastwest;rotatable=0;whiteSpace=wrap;html=1;" vertex="1" parent="Ok8LsuB4Ud9mYwhSegDr-26">
          <mxGeometry y="30" width="140" height="30" as="geometry" />
        </mxCell>
        <mxCell id="Ok8LsuB4Ud9mYwhSegDr-34" style="edgeStyle=orthogonalEdgeStyle;rounded=0;orthogonalLoop=1;jettySize=auto;html=1;exitX=0;exitY=0.5;exitDx=0;exitDy=0;" edge="1" parent="Ok8LsuB4Ud9mYwhSegDr-26" source="Ok8LsuB4Ud9mYwhSegDr-28">
          <mxGeometry relative="1" as="geometry">
            <mxPoint x="-90" y="75" as="targetPoint" />
          </mxGeometry>
        </mxCell>
        <mxCell id="Ok8LsuB4Ud9mYwhSegDr-28" value="&lt;div&gt;Экономика&lt;/div&gt;" style="text;strokeColor=none;fillColor=none;align=left;verticalAlign=middle;spacingLeft=4;spacingRight=4;overflow=hidden;points=[[0,0.5],[1,0.5]];portConstraint=eastwest;rotatable=0;whiteSpace=wrap;html=1;" vertex="1" parent="Ok8LsuB4Ud9mYwhSegDr-26">
          <mxGeometry y="60" width="140" height="30" as="geometry" />
        </mxCell>
        <mxCell id="Ok8LsuB4Ud9mYwhSegDr-35" style="edgeStyle=orthogonalEdgeStyle;rounded=0;orthogonalLoop=1;jettySize=auto;html=1;" edge="1" parent="Ok8LsuB4Ud9mYwhSegDr-26" source="Ok8LsuB4Ud9mYwhSegDr-29">
          <mxGeometry relative="1" as="geometry">
            <mxPoint x="-90" y="105" as="targetPoint" />
          </mxGeometry>
        </mxCell>
        <mxCell id="Ok8LsuB4Ud9mYwhSegDr-29" value="Медицина" style="text;strokeColor=none;fillColor=none;align=left;verticalAlign=middle;spacingLeft=4;spacingRight=4;overflow=hidden;points=[[0,0.5],[1,0.5]];portConstraint=eastwest;rotatable=0;whiteSpace=wrap;html=1;" vertex="1" parent="Ok8LsuB4Ud9mYwhSegDr-26">
          <mxGeometry y="90" width="140" height="30" as="geometry" />
        </mxCell>
        <mxCell id="Ok8LsuB4Ud9mYwhSegDr-36" style="edgeStyle=orthogonalEdgeStyle;rounded=0;orthogonalLoop=1;jettySize=auto;html=1;" edge="1" parent="Ok8LsuB4Ud9mYwhSegDr-26" source="Ok8LsuB4Ud9mYwhSegDr-30">
          <mxGeometry relative="1" as="geometry">
            <mxPoint x="-90" y="135" as="targetPoint" />
          </mxGeometry>
        </mxCell>
        <mxCell id="Ok8LsuB4Ud9mYwhSegDr-30" value="Транспортные перевозки" style="text;strokeColor=none;fillColor=none;align=left;verticalAlign=middle;spacingLeft=4;spacingRight=4;overflow=hidden;points=[[0,0.5],[1,0.5]];portConstraint=eastwest;rotatable=0;whiteSpace=wrap;html=1;" vertex="1" parent="Ok8LsuB4Ud9mYwhSegDr-26">
          <mxGeometry y="120" width="140" height="30" as="geometry" />
        </mxCell>
        <mxCell id="Ok8LsuB4Ud9mYwhSegDr-40" value="Сам сайт" style="swimlane;fontStyle=0;childLayout=stackLayout;horizontal=1;startSize=30;horizontalStack=0;resizeParent=1;resizeParentMax=0;resizeLast=0;collapsible=1;marginBottom=0;whiteSpace=wrap;html=1;" vertex="1" parent="1">
          <mxGeometry x="630" y="530" width="140" height="120" as="geometry" />
        </mxCell>
        <mxCell id="Ok8LsuB4Ud9mYwhSegDr-41" value="Обложка" style="text;strokeColor=none;fillColor=none;align=left;verticalAlign=middle;spacingLeft=4;spacingRight=4;overflow=hidden;points=[[0,0.5],[1,0.5]];portConstraint=eastwest;rotatable=0;whiteSpace=wrap;html=1;" vertex="1" parent="Ok8LsuB4Ud9mYwhSegDr-40">
          <mxGeometry y="30" width="140" height="30" as="geometry" />
        </mxCell>
        <mxCell id="Ok8LsuB4Ud9mYwhSegDr-42" value="Примеры работ" style="text;strokeColor=none;fillColor=none;align=left;verticalAlign=middle;spacingLeft=4;spacingRight=4;overflow=hidden;points=[[0,0.5],[1,0.5]];portConstraint=eastwest;rotatable=0;whiteSpace=wrap;html=1;" vertex="1" parent="Ok8LsuB4Ud9mYwhSegDr-40">
          <mxGeometry y="60" width="140" height="30" as="geometry" />
        </mxCell>
        <mxCell id="Ok8LsuB4Ud9mYwhSegDr-43" value="Нужные вакансии" style="text;strokeColor=none;fillColor=none;align=left;verticalAlign=middle;spacingLeft=4;spacingRight=4;overflow=hidden;points=[[0,0.5],[1,0.5]];portConstraint=eastwest;rotatable=0;whiteSpace=wrap;html=1;" vertex="1" parent="Ok8LsuB4Ud9mYwhSegDr-40">
          <mxGeometry y="90" width="140" height="30" as="geometry" />
        </mxCell>
      </root>
    </mxGraphModel>
  </diagram>
</mxfile>
